<mxfile host="app.diagrams.net" agent="Mozilla/5.0 (Windows NT 10.0; Win64; x64) AppleWebKit/537.36 (KHTML, like Gecko) Chrome/131.0.0.0 Safari/537.36" version="25.0.3">
  <diagram name="Page-1" id="Wx434TDJI2nH3EPZ08i5">
    <mxGraphModel dx="1365" dy="779" grid="1" gridSize="10" guides="1" tooltips="1" connect="1" arrows="1" fold="1" page="1" pageScale="1" pageWidth="850" pageHeight="1100" math="0" shadow="0">
      <root>
        <mxCell id="0" />
        <mxCell id="1" parent="0" />
        <mxCell id="3QQ7aEGl3oEm1BZ8Pkhi-1" value="&lt;div&gt;Healthcare Infrastructure&lt;/div&gt;" style="rounded=0;whiteSpace=wrap;html=1;align=left;verticalAlign=top;" parent="1" vertex="1">
          <mxGeometry x="330" y="230" width="1050" height="650" as="geometry" />
        </mxCell>
        <mxCell id="3QQ7aEGl3oEm1BZ8Pkhi-2" value="xShare Node" style="rounded=0;whiteSpace=wrap;html=1;align=left;verticalAlign=top;fillColor=#fff2cc;strokeColor=#d6b656;" parent="1" vertex="1">
          <mxGeometry x="530" y="260" width="830" height="510" as="geometry" />
        </mxCell>
        <mxCell id="e09ehZz6Y9dlDLDQR6JW-9" style="edgeStyle=orthogonalEdgeStyle;rounded=0;orthogonalLoop=1;jettySize=auto;html=1;entryX=0;entryY=0.5;entryDx=0;entryDy=0;" edge="1" parent="1" source="3QQ7aEGl3oEm1BZ8Pkhi-3" target="3QQ7aEGl3oEm1BZ8Pkhi-15">
          <mxGeometry relative="1" as="geometry" />
        </mxCell>
        <mxCell id="e09ehZz6Y9dlDLDQR6JW-10" style="edgeStyle=orthogonalEdgeStyle;rounded=0;orthogonalLoop=1;jettySize=auto;html=1;entryX=0;entryY=0.5;entryDx=0;entryDy=0;" edge="1" parent="1" source="3QQ7aEGl3oEm1BZ8Pkhi-3" target="e09ehZz6Y9dlDLDQR6JW-3">
          <mxGeometry relative="1" as="geometry" />
        </mxCell>
        <mxCell id="e09ehZz6Y9dlDLDQR6JW-11" style="edgeStyle=orthogonalEdgeStyle;rounded=0;orthogonalLoop=1;jettySize=auto;html=1;entryX=0;entryY=0.5;entryDx=0;entryDy=0;" edge="1" parent="1" source="3QQ7aEGl3oEm1BZ8Pkhi-3" target="3QQ7aEGl3oEm1BZ8Pkhi-17">
          <mxGeometry relative="1" as="geometry" />
        </mxCell>
        <mxCell id="3QQ7aEGl3oEm1BZ8Pkhi-3" value="&lt;div&gt;xShare Button API&lt;/div&gt;" style="rounded=0;whiteSpace=wrap;html=1;align=left;verticalAlign=top;" parent="1" vertex="1">
          <mxGeometry x="557" y="436" width="400" height="190" as="geometry" />
        </mxCell>
        <mxCell id="3QQ7aEGl3oEm1BZ8Pkhi-4" value="" style="edgeStyle=orthogonalEdgeStyle;rounded=0;orthogonalLoop=1;jettySize=auto;html=1;" parent="1" source="3QQ7aEGl3oEm1BZ8Pkhi-5" target="3QQ7aEGl3oEm1BZ8Pkhi-14" edge="1">
          <mxGeometry relative="1" as="geometry" />
        </mxCell>
        <mxCell id="e09ehZz6Y9dlDLDQR6JW-15" style="edgeStyle=orthogonalEdgeStyle;rounded=0;orthogonalLoop=1;jettySize=auto;html=1;entryX=0.5;entryY=0;entryDx=0;entryDy=0;" edge="1" parent="1" source="3QQ7aEGl3oEm1BZ8Pkhi-5" target="e09ehZz6Y9dlDLDQR6JW-1">
          <mxGeometry relative="1" as="geometry" />
        </mxCell>
        <mxCell id="3QQ7aEGl3oEm1BZ8Pkhi-5" value="Authorisation Client &lt;br&gt;(Web interface or APP)" style="rounded=0;whiteSpace=wrap;html=1;align=center;verticalAlign=middle;" parent="1" vertex="1">
          <mxGeometry x="355" y="320" width="140" height="40" as="geometry" />
        </mxCell>
        <mxCell id="3QQ7aEGl3oEm1BZ8Pkhi-7" value="Authorised Data Recipient" style="rounded=0;whiteSpace=wrap;html=1;align=center;verticalAlign=middle;" parent="1" vertex="1">
          <mxGeometry x="697" y="159" width="120" height="40" as="geometry" />
        </mxCell>
        <mxCell id="3QQ7aEGl3oEm1BZ8Pkhi-54" style="edgeStyle=orthogonalEdgeStyle;rounded=0;orthogonalLoop=1;jettySize=auto;html=1;entryX=0;entryY=0.5;entryDx=0;entryDy=0;exitX=1;exitY=0.5;exitDx=0;exitDy=0;" parent="1" source="3QQ7aEGl3oEm1BZ8Pkhi-3" target="3QQ7aEGl3oEm1BZ8Pkhi-46" edge="1">
          <mxGeometry relative="1" as="geometry" />
        </mxCell>
        <mxCell id="3QQ7aEGl3oEm1BZ8Pkhi-11" value="Orchestrator" style="rounded=0;whiteSpace=wrap;html=1;" parent="1" vertex="1">
          <mxGeometry x="697" y="456" width="120" height="40" as="geometry" />
        </mxCell>
        <mxCell id="3QQ7aEGl3oEm1BZ8Pkhi-12" style="edgeStyle=orthogonalEdgeStyle;rounded=0;orthogonalLoop=1;jettySize=auto;html=1;startArrow=classic;startFill=1;exitX=0.5;exitY=0;exitDx=0;exitDy=0;" parent="1" source="3QQ7aEGl3oEm1BZ8Pkhi-3" target="3QQ7aEGl3oEm1BZ8Pkhi-7" edge="1">
          <mxGeometry relative="1" as="geometry">
            <mxPoint x="1102" y="420" as="sourcePoint" />
            <mxPoint x="1371.9655172413793" y="530" as="targetPoint" />
          </mxGeometry>
        </mxCell>
        <mxCell id="3QQ7aEGl3oEm1BZ8Pkhi-14" value="&lt;div&gt;Visualisation&lt;/div&gt;" style="rounded=0;whiteSpace=wrap;html=1;" parent="1" vertex="1">
          <mxGeometry x="553" y="320" width="120" height="40" as="geometry" />
        </mxCell>
        <mxCell id="3QQ7aEGl3oEm1BZ8Pkhi-15" value="&lt;div&gt;Interoperability Component&lt;/div&gt;" style="rounded=0;whiteSpace=wrap;html=1;align=left;verticalAlign=top;labelBackgroundColor=none;fillColor=#b0e3e6;strokeColor=#0e8088;" parent="1" vertex="1">
          <mxGeometry x="1020" y="270" width="320" height="96" as="geometry" />
        </mxCell>
        <mxCell id="3QQ7aEGl3oEm1BZ8Pkhi-16" value="EEHRxF FHIR Mapping" style="rounded=0;whiteSpace=wrap;html=1;" parent="1" vertex="1">
          <mxGeometry x="1195" y="306" width="120" height="40" as="geometry" />
        </mxCell>
        <mxCell id="3QQ7aEGl3oEm1BZ8Pkhi-17" value="&lt;div&gt;Auditing Component&lt;/div&gt;" style="rounded=0;whiteSpace=wrap;html=1;align=left;verticalAlign=top;labelBackgroundColor=none;fillColor=#bac8d3;strokeColor=#23445d;" parent="1" vertex="1">
          <mxGeometry x="1020" y="670" width="320" height="90" as="geometry" />
        </mxCell>
        <mxCell id="3QQ7aEGl3oEm1BZ8Pkhi-18" value="Validator" style="rounded=0;whiteSpace=wrap;html=1;" parent="1" vertex="1">
          <mxGeometry x="1040" y="306" width="120" height="40" as="geometry" />
        </mxCell>
        <mxCell id="3QQ7aEGl3oEm1BZ8Pkhi-19" value="" style="edgeStyle=orthogonalEdgeStyle;rounded=0;orthogonalLoop=1;jettySize=auto;html=1;" parent="1" source="3QQ7aEGl3oEm1BZ8Pkhi-18" target="3QQ7aEGl3oEm1BZ8Pkhi-16" edge="1">
          <mxGeometry relative="1" as="geometry" />
        </mxCell>
        <mxCell id="e09ehZz6Y9dlDLDQR6JW-2" style="edgeStyle=orthogonalEdgeStyle;rounded=0;orthogonalLoop=1;jettySize=auto;html=1;entryX=0;entryY=0.5;entryDx=0;entryDy=0;entryPerimeter=0;" edge="1" parent="1" source="3QQ7aEGl3oEm1BZ8Pkhi-23" target="e09ehZz6Y9dlDLDQR6JW-4">
          <mxGeometry relative="1" as="geometry">
            <mxPoint x="1215" y="721" as="targetPoint" />
          </mxGeometry>
        </mxCell>
        <mxCell id="3QQ7aEGl3oEm1BZ8Pkhi-23" value="&lt;div&gt;&lt;span style=&quot;background-color: initial;&quot;&gt;Logging&lt;/span&gt;&lt;br&gt;&lt;/div&gt;" style="rounded=0;whiteSpace=wrap;html=1;align=center;verticalAlign=middle;" parent="1" vertex="1">
          <mxGeometry x="1040" y="701" width="120" height="40" as="geometry" />
        </mxCell>
        <mxCell id="3QQ7aEGl3oEm1BZ8Pkhi-25" value="&lt;div&gt;Sharing Manager&lt;/div&gt;" style="rounded=0;whiteSpace=wrap;html=1;align=center;verticalAlign=middle;" parent="1" vertex="1">
          <mxGeometry x="1030" y="593.5" width="120" height="40" as="geometry" />
        </mxCell>
        <mxCell id="3QQ7aEGl3oEm1BZ8Pkhi-28" style="edgeStyle=orthogonalEdgeStyle;rounded=0;orthogonalLoop=1;jettySize=auto;html=1;exitX=0.5;exitY=0.5;exitDx=0;exitDy=0;exitPerimeter=0;entryX=0;entryY=0.5;entryDx=0;entryDy=0;" parent="1" source="3QQ7aEGl3oEm1BZ8Pkhi-29" target="3QQ7aEGl3oEm1BZ8Pkhi-5" edge="1">
          <mxGeometry relative="1" as="geometry">
            <mxPoint x="130" y="330" as="targetPoint" />
          </mxGeometry>
        </mxCell>
        <mxCell id="3QQ7aEGl3oEm1BZ8Pkhi-29" value="Citizen" style="shape=umlActor;verticalLabelPosition=bottom;verticalAlign=top;html=1;outlineConnect=0;" parent="1" vertex="1">
          <mxGeometry x="240" y="310" width="30" height="60" as="geometry" />
        </mxCell>
        <mxCell id="3QQ7aEGl3oEm1BZ8Pkhi-30" style="edgeStyle=orthogonalEdgeStyle;rounded=0;orthogonalLoop=1;jettySize=auto;html=1;exitX=0.5;exitY=1;exitDx=0;exitDy=0;" parent="1" edge="1">
          <mxGeometry relative="1" as="geometry">
            <mxPoint x="990" y="736" as="sourcePoint" />
            <mxPoint x="990" y="736" as="targetPoint" />
          </mxGeometry>
        </mxCell>
        <mxCell id="3QQ7aEGl3oEm1BZ8Pkhi-46" value="&lt;div&gt;Data Transformation&lt;/div&gt;" style="rounded=0;whiteSpace=wrap;html=1;align=left;verticalAlign=top;labelBackgroundColor=none;fillColor=#d5e8d4;strokeColor=#82b366;" parent="1" vertex="1">
          <mxGeometry x="1020" y="380" width="320" height="170" as="geometry" />
        </mxCell>
        <mxCell id="3QQ7aEGl3oEm1BZ8Pkhi-47" value="&lt;div&gt;(Pseudo) Anonymisation&lt;/div&gt;" style="rounded=0;whiteSpace=wrap;html=1;align=center;verticalAlign=middle;" parent="1" vertex="1">
          <mxGeometry x="1030" y="439" width="140" height="40" as="geometry" />
        </mxCell>
        <mxCell id="3QQ7aEGl3oEm1BZ8Pkhi-48" value="&lt;div&gt;Translation&lt;/div&gt;" style="rounded=0;whiteSpace=wrap;html=1;align=center;verticalAlign=middle;" parent="1" vertex="1">
          <mxGeometry x="1185" y="439" width="140" height="40" as="geometry" />
        </mxCell>
        <mxCell id="3QQ7aEGl3oEm1BZ8Pkhi-49" value="&lt;div&gt;Password Protection&lt;/div&gt;" style="rounded=0;whiteSpace=wrap;html=1;align=center;verticalAlign=middle;" parent="1" vertex="1">
          <mxGeometry x="1030" y="490" width="140" height="40" as="geometry" />
        </mxCell>
        <mxCell id="3QQ7aEGl3oEm1BZ8Pkhi-50" value="&lt;div&gt;Digital Signature&lt;/div&gt;" style="rounded=0;whiteSpace=wrap;html=1;align=center;verticalAlign=middle;" parent="1" vertex="1">
          <mxGeometry x="1185" y="490" width="140" height="40" as="geometry" />
        </mxCell>
        <mxCell id="3QQ7aEGl3oEm1BZ8Pkhi-51" value="HIE" style="strokeWidth=2;html=1;shape=mxgraph.flowchart.database;whiteSpace=wrap;" parent="1" vertex="1">
          <mxGeometry x="727" y="800" width="60" height="60" as="geometry" />
        </mxCell>
        <mxCell id="ZPfb0gJVKHJdMQJQ2fNH-1" value="Health Record Manager" style="rounded=0;whiteSpace=wrap;html=1;fillColor=#e1d5e7;strokeColor=#9673a6;align=left;verticalAlign=top;" parent="1" vertex="1">
          <mxGeometry x="579.5" y="516" width="355" height="93.5" as="geometry" />
        </mxCell>
        <mxCell id="ZPfb0gJVKHJdMQJQ2fNH-4" value="MyHealth@EU" style="rounded=0;whiteSpace=wrap;html=1;verticalAlign=middle;align=center;" parent="1" vertex="1">
          <mxGeometry x="587" y="556.5" width="100" height="40" as="geometry" />
        </mxCell>
        <mxCell id="ZPfb0gJVKHJdMQJQ2fNH-5" value="EUDI Wallet" style="rounded=0;whiteSpace=wrap;html=1;verticalAlign=middle;align=center;" parent="1" vertex="1">
          <mxGeometry x="707" y="556" width="100" height="40" as="geometry" />
        </mxCell>
        <mxCell id="ZPfb0gJVKHJdMQJQ2fNH-6" value="Custom API" style="rounded=0;whiteSpace=wrap;html=1;verticalAlign=middle;align=center;" parent="1" vertex="1">
          <mxGeometry x="827" y="556" width="100" height="40" as="geometry" />
        </mxCell>
        <mxCell id="ZPfb0gJVKHJdMQJQ2fNH-8" style="edgeStyle=orthogonalEdgeStyle;rounded=0;orthogonalLoop=1;jettySize=auto;html=1;exitX=0.5;exitY=1;exitDx=0;exitDy=0;" parent="1" source="ZPfb0gJVKHJdMQJQ2fNH-1" target="ZPfb0gJVKHJdMQJQ2fNH-1" edge="1">
          <mxGeometry relative="1" as="geometry" />
        </mxCell>
        <mxCell id="KUS1rw08NQm0ADydj860-1" value="&lt;div&gt;Format converter&lt;/div&gt;" style="rounded=0;whiteSpace=wrap;html=1;align=center;verticalAlign=middle;" parent="1" vertex="1">
          <mxGeometry x="1185" y="390" width="140" height="40" as="geometry" />
        </mxCell>
        <mxCell id="e09ehZz6Y9dlDLDQR6JW-1" value="Upload" style="rounded=0;whiteSpace=wrap;html=1;align=center;verticalAlign=middle;" vertex="1" parent="1">
          <mxGeometry x="355" y="537.5" width="140" height="40" as="geometry" />
        </mxCell>
        <mxCell id="e09ehZz6Y9dlDLDQR6JW-3" value="&lt;div&gt;Sharing Component&lt;/div&gt;" style="rounded=0;whiteSpace=wrap;html=1;align=left;verticalAlign=top;labelBackgroundColor=none;fillColor=#f8cecc;strokeColor=#b85450;" vertex="1" parent="1">
          <mxGeometry x="1020" y="564" width="320" height="90" as="geometry" />
        </mxCell>
        <mxCell id="e09ehZz6Y9dlDLDQR6JW-4" value="Storage" style="strokeWidth=2;html=1;shape=mxgraph.flowchart.database;whiteSpace=wrap;" vertex="1" parent="1">
          <mxGeometry x="1240" y="691" width="60" height="60" as="geometry" />
        </mxCell>
        <mxCell id="e09ehZz6Y9dlDLDQR6JW-6" value="&lt;div&gt;&lt;span style=&quot;background-color: initial;&quot;&gt;Sharing Manager&lt;/span&gt;&lt;br&gt;&lt;/div&gt;" style="rounded=0;whiteSpace=wrap;html=1;align=center;verticalAlign=middle;" vertex="1" parent="1">
          <mxGeometry x="1040" y="593.5" width="120" height="40" as="geometry" />
        </mxCell>
        <mxCell id="e09ehZz6Y9dlDLDQR6JW-7" value="Cache" style="strokeWidth=2;html=1;shape=mxgraph.flowchart.database;whiteSpace=wrap;" vertex="1" parent="1">
          <mxGeometry x="1240" y="583.5" width="60" height="60" as="geometry" />
        </mxCell>
        <mxCell id="e09ehZz6Y9dlDLDQR6JW-8" style="edgeStyle=orthogonalEdgeStyle;rounded=0;orthogonalLoop=1;jettySize=auto;html=1;entryX=0;entryY=0.5;entryDx=0;entryDy=0;entryPerimeter=0;" edge="1" parent="1" source="e09ehZz6Y9dlDLDQR6JW-6" target="e09ehZz6Y9dlDLDQR6JW-7">
          <mxGeometry relative="1" as="geometry" />
        </mxCell>
        <mxCell id="e09ehZz6Y9dlDLDQR6JW-14" style="edgeStyle=orthogonalEdgeStyle;rounded=0;orthogonalLoop=1;jettySize=auto;html=1;entryX=0.14;entryY=0;entryDx=0;entryDy=0;entryPerimeter=0;" edge="1" parent="1" source="3QQ7aEGl3oEm1BZ8Pkhi-14" target="3QQ7aEGl3oEm1BZ8Pkhi-3">
          <mxGeometry relative="1" as="geometry" />
        </mxCell>
        <mxCell id="e09ehZz6Y9dlDLDQR6JW-16" style="edgeStyle=orthogonalEdgeStyle;rounded=0;orthogonalLoop=1;jettySize=auto;html=1;entryX=0;entryY=0.5;entryDx=0;entryDy=0;entryPerimeter=0;" edge="1" parent="1" source="e09ehZz6Y9dlDLDQR6JW-1" target="3QQ7aEGl3oEm1BZ8Pkhi-51">
          <mxGeometry relative="1" as="geometry">
            <Array as="points">
              <mxPoint x="425" y="830" />
            </Array>
          </mxGeometry>
        </mxCell>
        <mxCell id="e09ehZz6Y9dlDLDQR6JW-17" style="edgeStyle=orthogonalEdgeStyle;rounded=0;orthogonalLoop=1;jettySize=auto;html=1;entryX=0.5;entryY=0;entryDx=0;entryDy=0;entryPerimeter=0;" edge="1" parent="1" source="3QQ7aEGl3oEm1BZ8Pkhi-3" target="3QQ7aEGl3oEm1BZ8Pkhi-51">
          <mxGeometry relative="1" as="geometry" />
        </mxCell>
        <mxCell id="e09ehZz6Y9dlDLDQR6JW-18" value="&lt;div&gt;&lt;span style=&quot;background-color: initial;&quot;&gt;SHL&lt;/span&gt;&lt;br&gt;&lt;/div&gt;" style="rounded=0;whiteSpace=wrap;html=1;align=center;verticalAlign=middle;fillColor=#1ba1e2;fontColor=#ffffff;strokeColor=#006EAF;" vertex="1" parent="1">
          <mxGeometry x="1145" y="623.5" width="40" height="20" as="geometry" />
        </mxCell>
        <mxCell id="e09ehZz6Y9dlDLDQR6JW-19" value="&lt;div&gt;&lt;span style=&quot;background-color: initial;&quot;&gt;&lt;font style=&quot;font-size: 9px;&quot;&gt;FHIR PDF&lt;/font&gt;&lt;/span&gt;&lt;br&gt;&lt;/div&gt;" style="rounded=0;whiteSpace=wrap;html=1;align=center;verticalAlign=middle;fillColor=#1ba1e2;fontColor=#ffffff;strokeColor=#006EAF;" vertex="1" parent="1">
          <mxGeometry x="1305" y="397" width="30" height="26" as="geometry" />
        </mxCell>
        <mxCell id="e09ehZz6Y9dlDLDQR6JW-20" value="&lt;div&gt;&lt;font style=&quot;font-size: 10px;&quot;&gt;CDA2FHIR&lt;/font&gt;&lt;/div&gt;" style="rounded=0;whiteSpace=wrap;html=1;align=center;verticalAlign=middle;fillColor=#1ba1e2;fontColor=#ffffff;strokeColor=#006EAF;" vertex="1" parent="1">
          <mxGeometry x="1281" y="330" width="55" height="20" as="geometry" />
        </mxCell>
        <mxCell id="e09ehZz6Y9dlDLDQR6JW-21" value="&lt;div&gt;&lt;font style=&quot;font-size: 10px;&quot;&gt;FHIR valid&lt;/font&gt;&lt;/div&gt;" style="rounded=0;whiteSpace=wrap;html=1;align=center;verticalAlign=middle;fillColor=#1ba1e2;fontColor=#ffffff;strokeColor=#006EAF;" vertex="1" parent="1">
          <mxGeometry x="1038" y="340" width="55" height="20" as="geometry" />
        </mxCell>
        <mxCell id="e09ehZz6Y9dlDLDQR6JW-22" value="&lt;div&gt;&lt;font style=&quot;font-size: 10px;&quot;&gt;EEHRxF valid&lt;/font&gt;&lt;/div&gt;" style="rounded=0;whiteSpace=wrap;html=1;align=center;verticalAlign=middle;fillColor=#1ba1e2;fontColor=#ffffff;strokeColor=#006EAF;" vertex="1" parent="1">
          <mxGeometry x="1102" y="340" width="65" height="20" as="geometry" />
        </mxCell>
      </root>
    </mxGraphModel>
  </diagram>
</mxfile>
